<?xml version="1.0" encoding="iso-8859-1"?>
<!-- Generator: Adobe Illustrator 19.0.0, SVG Export Plug-In . SVG Version: 6.00 Build 0)  -->
<svg version="1.1" id="Capa_1" xmlns="http://www.w3.org/2000/svg" xmlns:xlink="http://www.w3.org/1999/xlink" x="0px" y="0px"
	 viewBox="0 0 512 512" style="enable-background:new 0 0 512 512;" xml:space="preserve">
<path style="fill:#F44336;" d="M74.667,0h362.667C478.571,0,512,33.429,512,74.667v362.667C512,478.571,478.571,512,437.333,512
	H74.667C33.429,512,0,478.571,0,437.333V74.667C0,33.429,33.429,0,74.667,0z"/>
<g>
	<path style="fill:#FAFAFA;" d="M448,426.667H202.667c-5.891,0-10.667-4.776-10.667-10.667c0-5.891,4.776-10.667,10.667-10.667H448
		c5.891,0,10.667,4.776,10.667,10.667C458.667,421.891,453.891,426.667,448,426.667z"/>
	<path style="fill:#FAFAFA;" d="M357.781,204.373l-149.333-96c-4.951-3.193-11.552-1.768-14.745,3.183
		c-1.111,1.722-1.702,3.728-1.703,5.777v192c0.002,5.891,4.78,10.665,10.671,10.663c2.049-0.001,4.055-0.592,5.777-1.703l149.333-96
		c4.954-3.187,6.387-9.787,3.2-14.742c-0.825-1.283-1.917-2.374-3.2-3.2V204.373z"/>
	<path style="fill:#FAFAFA;" d="M117.333,426.667h-64c-5.891,0-10.667-4.776-10.667-10.667c0-5.891,4.776-10.667,10.667-10.667h64
		c5.891,0,10.667,4.776,10.667,10.667C128,421.891,123.224,426.667,117.333,426.667z"/>
</g>
<circle style="fill:#CFD8DC;" cx="160" cy="416" r="53.333"/>
<path style="fill:#607D8B;" d="M160.427,426.667c-5.891,0-10.667-4.776-10.667-10.667c-0.001-5.809,4.646-10.55,10.453-10.667h0.213
	c5.891,0,10.667,4.776,10.667,10.667C171.093,421.891,166.318,426.667,160.427,426.667L160.427,426.667z"/>
<g>
</g>
<g>
</g>
<g>
</g>
<g>
</g>
<g>
</g>
<g>
</g>
<g>
</g>
<g>
</g>
<g>
</g>
<g>
</g>
<g>
</g>
<g>
</g>
<g>
</g>
<g>
</g>
<g>
</g>
</svg>
